<?xml version="1.0" encoding="UTF-8" standalone="no"?>
<svg
   xmlns:dc="http://purl.org/dc/elements/1.1/"
   xmlns:cc="http://creativecommons.org/ns#"
   xmlns:rdf="http://www.w3.org/1999/02/22-rdf-syntax-ns#"
   xmlns:svg="http://www.w3.org/2000/svg"
   xmlns="http://www.w3.org/2000/svg"
   xmlns:xlink="http://www.w3.org/1999/xlink"
   xmlns:sodipodi="http://sodipodi.sourceforge.net/DTD/sodipodi-0.dtd"
   xmlns:inkscape="http://www.inkscape.org/namespaces/inkscape"
   width="762.96912mm"
   height="369.27298mm"
   viewBox="0 0 762.96912 369.27298"
   version="1.1"
   id="svg8847"
   inkscape:version="1.0.2-2 (e86c870879, 2021-01-15)"
   sodipodi:docname="light_openMINDS-core-logo.svg">
  <defs
     id="defs8841">
    <linearGradient
       inkscape:collect="always"
       xlink:href="#linear-gradient"
       id="linearGradient16998"
       gradientUnits="userSpaceOnUse"
       gradientTransform="translate(-2188.7757,804.67203)"
       x1="-6012.9951"
       y1="-2083.6816"
       x2="-6012.9951"
       y2="-2217.5669" />
    <linearGradient
       gradientUnits="userSpaceOnUse"
       y2="100"
       x2="200"
       y1="100"
       x1="0.5"
       id="linear-gradient">
      <stop
         id="stop15253"
         stop-color="#f7db2e"
         offset="0" />
      <stop
         id="stop15255"
         stop-color="#82c558"
         offset="0.5" />
      <stop
         id="stop15257"
         stop-color="#127e7a"
         offset="1" />
    </linearGradient>
    <inkscape:path-effect
       effect="bspline"
       id="path-effect1192-2-82-04-8-9-1-8-6-7"
       is_visible="true"
       weight="33.333333"
       steps="2"
       helper_size="0"
       apply_no_weight="true"
       apply_with_weight="true"
       only_selected="false"
       lpeversion="0" />
    <inkscape:path-effect
       effect="bspline"
       id="path-effect1192-2-82-04-8-9-1-8-68"
       is_visible="true"
       weight="33.333333"
       steps="2"
       helper_size="0"
       apply_no_weight="true"
       apply_with_weight="true"
       only_selected="false"
       lpeversion="0" />
    <inkscape:path-effect
       effect="bspline"
       id="path-effect1200-8-8-45-8-2-6-49"
       is_visible="true"
       weight="33.333333"
       steps="2"
       helper_size="0"
       apply_no_weight="true"
       apply_with_weight="true"
       only_selected="false"
       lpeversion="0" />
    <inkscape:path-effect
       effect="bspline"
       id="path-effect1204-5-60-497-0-5-1-5"
       is_visible="true"
       weight="33.333333"
       steps="2"
       helper_size="0"
       apply_no_weight="true"
       apply_with_weight="true"
       only_selected="false"
       lpeversion="0" />
    <inkscape:path-effect
       effect="bspline"
       id="path-effect1208-5-8-2-9-56-2-2"
       is_visible="true"
       weight="33.333333"
       steps="2"
       helper_size="0"
       apply_no_weight="true"
       apply_with_weight="true"
       only_selected="false"
       lpeversion="0" />
    <inkscape:path-effect
       effect="bspline"
       id="path-effect1212-9-57-4-5-4-9-1"
       is_visible="true"
       weight="33.333333"
       steps="2"
       helper_size="0"
       apply_no_weight="true"
       apply_with_weight="true"
       only_selected="false"
       lpeversion="0" />
    <inkscape:path-effect
       effect="bspline"
       id="path-effect1216-0-22-53-2-26-2-9"
       is_visible="true"
       weight="33.333333"
       steps="2"
       helper_size="0"
       apply_no_weight="true"
       apply_with_weight="true"
       only_selected="false"
       lpeversion="0" />
    <inkscape:path-effect
       effect="bspline"
       id="path-effect1220-7-50-12-0-8-4-0"
       is_visible="true"
       weight="33.333333"
       steps="2"
       helper_size="0"
       apply_no_weight="true"
       apply_with_weight="true"
       only_selected="false"
       lpeversion="0" />
    <inkscape:path-effect
       effect="bspline"
       id="path-effect1224-5-24-6-0-4-9-46"
       is_visible="true"
       weight="33.333333"
       steps="2"
       helper_size="0"
       apply_no_weight="true"
       apply_with_weight="true"
       only_selected="false"
       lpeversion="0" />
    <inkscape:path-effect
       effect="bspline"
       id="path-effect1228-4-61-58-2-2-4-81"
       is_visible="true"
       weight="33.333333"
       steps="2"
       helper_size="0"
       apply_no_weight="true"
       apply_with_weight="true"
       only_selected="false"
       lpeversion="0" />
  </defs>
  <sodipodi:namedview
     id="base"
     pagecolor="#ffffff"
     bordercolor="#666666"
     borderopacity="1.0"
     inkscape:pageopacity="0.0"
     inkscape:pageshadow="2"
     inkscape:zoom="0.35"
     inkscape:cx="1327.5441"
     inkscape:cy="572.12435"
     inkscape:document-units="mm"
     inkscape:current-layer="layer1"
     inkscape:document-rotation="0"
     showgrid="false"
     inkscape:window-width="1313"
     inkscape:window-height="1030"
     inkscape:window-x="96"
     inkscape:window-y="478"
     inkscape:window-maximized="0" />
  <metadata
     id="metadata8844">
    <rdf:RDF>
      <cc:Work
         rdf:about="">
        <dc:format>image/svg+xml</dc:format>
        <dc:type
           rdf:resource="http://purl.org/dc/dcmitype/StillImage" />
        <dc:title></dc:title>
      </cc:Work>
    </rdf:RDF>
  </metadata>
  <g
     inkscape:label="Ebene 1"
     inkscape:groupmode="layer"
     id="layer1"
     transform="translate(245.4127,3.2079)">
    <g
       id="g19219"
       transform="translate(8594.553,1568.737)">
      <path
         inkscape:export-ydpi="50"
         inkscape:export-xdpi="50"
         sodipodi:nodetypes="cccc"
         inkscape:connector-curvature="0"
         id="path1486-5-5-5-1-5-9"
         d="m -8293.6162,-1449.2071 v 207.0198 l -109.3645,-207.675 v 207.0192"
         style="fill:none;stroke:#000000;stroke-width:15;stroke-linecap:round;stroke-linejoin:round;stroke-miterlimit:4;stroke-dasharray:none;stroke-opacity:1" />
      <path
         inkscape:export-ydpi="50"
         inkscape:export-xdpi="50"
         sodipodi:nodetypes="ccccc"
         inkscape:connector-curvature="0"
         id="path1908-1-5-79-2-0-88"
         d="m -8678.1817,-1210.2787 v -239.5843 l 88.4814,69.0685 88.4835,-69.0685 v 207.0199"
         style="fill:none;stroke:#000000;stroke-width:15;stroke-linecap:round;stroke-linejoin:round;stroke-miterlimit:4;stroke-dasharray:none;stroke-opacity:1" />
      <path
         style="opacity:1;fill:none;fill-opacity:1;stroke:#000000;stroke-width:15;stroke-linecap:round;stroke-linejoin:round;stroke-miterlimit:4;stroke-dasharray:none;stroke-dashoffset:0;stroke-opacity:1"
         d="m -8751.5315,-1529.5617 c 0,17.8037 -18.1177,34.8823 -40.4671,34.8823 -22.3494,0 -40.4671,-17.0786 -40.4671,-34.8823 0,-17.8038 18.1177,-34.8824 40.4671,-34.8824 22.3494,0 40.4671,17.0786 40.4671,34.8824 z"
         id="path1910-6-6-8-8-7-5-89"
         inkscape:connector-curvature="0"
         sodipodi:nodetypes="sssss" />
      <path
         sodipodi:nodetypes="cccssscc"
         inkscape:connector-curvature="0"
         id="path1942-5-1-9-0-95-4"
         d="m -8731.5336,-1444.3037 v -50.3756 m 0,-69.7107 36.9937,-0.054 c 22.3492,-0.04 40.4672,17.0787 40.4672,34.8825 0,17.8036 -18.1177,34.8821 -40.4672,34.8821 h -36.9937 z"
         style="fill:none;stroke:#000000;stroke-width:15;stroke-linecap:round;stroke-linejoin:round;stroke-miterlimit:4;stroke-dasharray:none;stroke-opacity:1" />
      <g
         inkscape:export-ydpi="50"
         inkscape:export-xdpi="50"
         style="stroke-width:9.92515;stroke-miterlimit:4;stroke-dasharray:none"
         transform="matrix(1.5113121,0,0,1.5113121,-8463.5459,-1542.6036)"
         id="g1996-8-1-58-6-6-47">
        <path
           style="opacity:1;fill:none;fill-opacity:1;stroke:#000000;stroke-width:9.92515;stroke-linecap:round;stroke-linejoin:round;stroke-miterlimit:4;stroke-dasharray:none;stroke-dashoffset:0;stroke-opacity:1"
           d="m -64.944758,22.900443 c -5.800014,5.679036 -14.834199,8.70694 -21.116025,8.80986 -14.788057,0 -26.776137,-11.300517 -26.776137,-23.0808293 m 0,0 c 0,-11.7803118 11.98808,-23.0808287 26.776137,-23.0808297 14.788054,0 26.77614,11.300517 26.77614,23.0808297 z"
           id="path1910-6-3-1-0-87-3-4-3"
           inkscape:connector-curvature="0"
           sodipodi:nodetypes="ccccscc" />
      </g>
      <g
         inkscape:export-ydpi="50"
         inkscape:export-xdpi="50"
         style="stroke-width:9.92515;stroke-miterlimit:4;stroke-dasharray:none"
         transform="matrix(1.5113121,0,0,1.5113121,-8483.4841,-1551.8095)"
         id="g2033-8-98-9-6-3-4">
        <path
           style="opacity:1;fill:none;fill-opacity:1;stroke:#000000;stroke-width:9.92515;stroke-linecap:round;stroke-linejoin:round;stroke-miterlimit:4;stroke-dasharray:none;stroke-dashoffset:0;stroke-opacity:1"
           d="m -32.785292,14.755479 c 0,-11.7803139 11.988086,-23.080635 26.77614,-23.080635 14.788054,0 26.776152,11.3000415 26.776152,23.080355 V 204.43589"
           id="path1910-6-7-3-5-2-3-7-50"
           inkscape:connector-curvature="0"
           sodipodi:nodetypes="cssc" />
        <path
           style="fill:none;stroke:#000000;stroke-width:9.92515;stroke-linecap:round;stroke-linejoin:round;stroke-miterlimit:4;stroke-dasharray:none;stroke-opacity:1"
           d="m -32.785042,-8.2893725 -2.5e-4,23.0448515 2.5e-4,23.116521"
           id="path2028-2-0-71-7-8-4"
           inkscape:connector-curvature="0"
           sodipodi:nodetypes="ccc" />
      </g>
      <path
         sodipodi:nodetypes="cccsaaaascaaassac"
         inkscape:connector-curvature="0"
         id="path1910-6-0-3-9-8-3-61-3"
         d="m -8591.8171,-1210.2782 h 260.5269 66.695 60.2512 c 25.3729,0 50.268,-2.1751 71.1336,-14.4205 15.9386,-9.3539 28.3636,-25.2896 36.113,-42.0669 11.3343,-24.5383 12.6008,-53.0741 12.6008,-80.1036 0,-27.0296 -1.2665,-55.5653 -12.6008,-80.1036 -7.7494,-16.7773 -20.5882,-32.0413 -36.113,-42.0669 -19.8655,-12.8288 -66.1658,-13.6883 -86.2514,-14.4191 -20.4684,-1.8113 -24.905,-1.8782 -33.3419,-9.8186 -7.8494,-7.3875 -10.9971,-19.6307 -10.9971,-30.4098 0,-10.7791 3.4696,-22.6946 10.9971,-30.4099 6.633,-6.7985 17.0511,-10.3478 26.5493,-10.3478 h 93.8236 c 9.4982,0 19.9164,3.5492 26.5493,10.3478 7.5273,7.7153 10.9965,22.1506 10.9965,30.4099"
         style="opacity:1;fill:none;fill-opacity:1;stroke:#000000;stroke-width:15;stroke-linecap:round;stroke-linejoin:round;stroke-miterlimit:4;stroke-dasharray:none;stroke-dashoffset:0;stroke-opacity:1" />
      <path
         style="fill:url(#linearGradient16998);fill-opacity:1;stroke:none;stroke-width:14;stroke-linecap:round;stroke-linejoin:round;stroke-miterlimit:4;stroke-dasharray:none;stroke-opacity:1"
         d="m -8246.5549,-1444.0662 c 0,0 0,186.3901 0,186.3901 3.1927,3.3365 6.3854,6.6731 11.5901,9.5476 5.2048,2.8745 12.4203,5.2867 20.1384,6.0907 7.7182,0.804 15.9395,-2e-4 21.8306,-2.0472 5.891,-2.047 9.4539,-5.3369 11.9453,-7.8013 2.4914,-2.4643 3.9133,-4.1047 5.218,-4.8882 1.3047,-0.7835 2.4927,-0.7104 6.1945,-0.4389 3.7018,0.2716 9.9271,0.7421 15.0006,-2.0927 5.0736,-2.8348 9.0022,-8.9767 10.1314,-15.25 1.1292,-6.2732 -0.5384,-12.6772 -0.7791,-15.9932 -0.2406,-3.316 0.9471,-3.5353 4.23,-5.7469 3.2828,-2.2116 8.6682,-6.4204 11.4536,-10.7935 2.7853,-4.3732 2.9678,-8.9028 2.137,-13.4735 -0.8307,-4.5707 -2.6754,-9.1827 -4.5198,-13.794 0,0 -1.0962,-1.0966 -1.0962,-1.0966 3.1777,-3.8532 6.3563,-7.7075 7.1228,-12.5936 0.7664,-4.8861 -0.8781,-10.8086 -2.8754,-14.3956 -1.9974,-3.587 -4.3475,-4.8401 -4.8497,-9.3137 -0.5022,-4.4736 0.8446,-12.1632 0.4648,-17.7505 -0.3798,-5.5872 -2.4875,-9.0776 -5.6535,-11.6184 -3.1661,-2.5408 -7.3924,-4.1342 -10.9137,-5.7141 -3.5212,-1.58 -6.3365,-3.1461 -8.1005,-7.7227 -1.7639,-4.5765 -2.4759,-12.1628 -5.4647,-16.8927 -2.9887,-4.7299 -8.2542,-6.6035 -13.0441,-6.6834 -4.7898,-0.08 -9.1014,1.6333 -13.018,1.3359 -3.9165,-0.2975 -7.433,-2.607 -10.2109,-4.8032 -2.778,-2.1963 -4.8103,-4.2704 -8.1099,-5.9682 -3.2997,-1.6978 -7.7717,-2.9719 -12.2535,-3.7119 -4.4817,-0.7401 -8.9145,-0.934 -13.0894,-0.7581 -4.1749,0.1759 -8.0387,0.7192 -10.2408,2.1125 -2.2022,1.3934 -2.7197,3.6279 -3.2379,5.8653 z"
         id="path1190-2-8-8-7-0-8-9-2"
         inkscape:connector-curvature="0"
         inkscape:path-effect="#path-effect1192-2-82-04-8-9-1-8-6-7"
         inkscape:original-d="m -8246.5549,-1444.0662 v 186.3901 c 0,0 6.3864,6.6721 9.578,10.0095 7.2172,2.4116 14.4328,4.8237 21.6476,7.2369 8.221,-0.8049 16.4423,-1.6091 24.6617,-2.4123 3.5629,-3.2899 7.1258,-6.5798 10.6869,-9.8684 1.4216,-1.6402 2.8435,-3.2806 4.2651,-4.9208 1.1878,0.073 2.3758,0.146 3.5622,0.2194 6.2172,0.4697 12.4425,0.9403 18.6623,1.4107 3.9273,-6.1398 7.856,-12.2817 11.7828,-18.4209 -1.6682,-6.4074 -3.3358,-12.8114 -5.006,-19.2239 1.1886,-0.2196 2.3763,-0.4389 3.5624,-0.6577 5.3796,-4.2043 10.765,-8.413 16.153,-12.6237 0.183,-4.5356 0.3655,-9.0652 0.5477,-13.5961 -1.8437,-4.6106 -5.5331,-13.8338 -5.5331,-13.8338 l -1.0962,-1.0966 c 0,0 6.3563,-7.7075 9.5331,-11.5597 -1.6436,-5.9201 -3.2881,-11.8426 -4.9324,-17.7631 -2.3505,-1.2537 -4.7006,-2.5068 -7.0527,-3.7605 1.3477,-7.6932 2.6945,-15.3828 4.0406,-23.0697 -2.1056,-3.4878 -4.2132,-6.9782 -6.32,-10.4664 -4.2256,-1.5935 -8.4519,-3.1869 -12.6787,-4.7801 -2.8156,-1.5667 -5.631,-3.1328 -8.4469,-4.6989 -0.7118,-7.5867 -1.4238,-15.173 -2.1361,-22.7591 -5.2654,-1.874 -10.5309,-3.7476 -15.797,-5.6212 -4.3138,1.7139 -8.6254,3.4271 -12.9415,5.1423 -3.5167,-2.3102 -7.0332,-4.6197 -10.5458,-6.9263 -2.0432,-2.0858 -4.0755,-4.16 -6.1355,-6.2619 -4.5395,-1.2937 -9.0115,-2.5678 -13.5233,-3.8529 -4.4518,-0.195 -8.8846,-0.3889 -13.3449,-0.5837 -3.8895,0.5467 -7.7533,1.0899 -11.6387,1.6365 -0.5187,2.2404 -1.5546,6.7123 -1.5546,6.7123 z"
         sodipodi:nodetypes="cccccccccccccccccccccccscccccccc" />
      <path
         style="fill:none;stroke:#000000;stroke-width:14;stroke-linecap:round;stroke-linejoin:round;stroke-miterlimit:4;stroke-dasharray:none;stroke-opacity:1"
         d="m -8244.8244,-1426.6511 c 0,0 0,153.4443 0,153.4443 0,6.5622 0,13.1241 1.5964,17.3845 1.5963,4.2605 4.7891,6.219 9.9938,8.4045 5.2047,2.1855 12.4202,4.5977 20.1383,5.4017 7.7182,0.804 15.9395,-2e-4 21.8306,-2.0472 5.891,-2.047 9.4539,-5.3369 11.9453,-7.8013 2.4914,-2.4643 3.9133,-4.1047 5.218,-4.8882 1.3047,-0.7835 2.4927,-0.7104 6.1945,-0.4389 3.7018,0.2716 9.9271,0.7421 15.0006,-2.0927 5.0736,-2.8348 9.0022,-8.9767 10.1314,-15.25 1.1292,-6.2732 -0.5384,-12.6772 -0.7791,-15.9932 -0.2406,-3.316 0.9471,-3.5353 4.23,-5.7469 3.2828,-2.2116 8.6682,-6.4204 11.4536,-10.7935 2.7853,-4.3732 2.9678,-8.9028 1.9543,-13.6562 -1.0134,-4.7535 -3.2235,-9.7311 -5.4333,-14.7079 3.1777,-3.8532 6.3563,-7.7075 7.1228,-12.5936 0.7664,-4.8861 -0.8781,-10.8086 -2.8754,-14.3956 -1.9974,-3.587 -4.3475,-4.8401 -4.8497,-9.3137 -0.5022,-4.4736 0.8446,-12.1632 0.4648,-17.7505 -0.3798,-5.5872 -2.4875,-9.0776 -5.6535,-11.6184 -3.1661,-2.5408 -7.3924,-4.1342 -10.9137,-5.7141 -3.5212,-1.58 -6.3365,-3.1461 -8.1005,-7.7227 -1.7639,-4.5765 -2.4759,-12.1628 -5.4647,-16.8927 -2.9887,-4.7299 -8.2542,-6.6035 -13.0441,-6.6834 -4.7898,-0.08 -9.1014,1.6333 -13.018,1.3359 -3.9165,-0.2975 -7.433,-2.607 -10.1937,-4.5967 -2.7607,-1.9897 -4.7587,-3.653 -8.0545,-5.2073 -3.2958,-1.5542 -7.7942,-2.9556 -12.2932,-3.7562 -4.4989,-0.8007 -8.9396,-0.9874 -13.1184,-0.6613 -4.1787,0.3261 -8.0475,1.1616 -10.2469,2.6019 -2.1993,1.4404 -2.7174,3.483 -3.2356,5.5257 0,0 -10e-5,16.2237 -10e-5,16.2237 z"
         id="path1190-2-8-8-7-0-8-9"
         inkscape:connector-curvature="0"
         inkscape:path-effect="#path-effect1192-2-82-04-8-9-1-8-68"
         inkscape:original-d="m -8244.8244,-1426.6511 v 153.4443 c 0,0 3e-4,13.1241 0,19.6865 3.1929,1.9582 6.3857,3.9167 9.578,5.8754 7.2172,2.4116 14.4328,4.8237 21.6476,7.2369 8.221,-0.8049 16.4423,-1.6091 24.6617,-2.4123 3.5629,-3.2899 7.1258,-6.5798 10.6869,-9.8684 1.4216,-1.6402 2.8435,-3.2806 4.2651,-4.9208 1.1878,0.073 2.3758,0.146 3.5622,0.2194 6.2172,0.4697 12.4425,0.9403 18.6623,1.4107 3.9273,-6.1398 7.856,-12.2817 11.7828,-18.4209 -1.6682,-6.4074 -3.3358,-12.8114 -5.006,-19.2239 1.1886,-0.2196 2.3763,-0.4389 3.5624,-0.6577 5.3796,-4.2043 10.765,-8.413 16.153,-12.6237 0.183,-4.5356 0.3655,-9.0652 0.5477,-13.5961 -2.2091,-4.9761 -6.6293,-14.9304 -6.6293,-14.9304 0,0 6.3563,-7.7075 9.5331,-11.5597 -1.6436,-5.9201 -3.2881,-11.8426 -4.9324,-17.7631 -2.3505,-1.2537 -4.7006,-2.5068 -7.0527,-3.7605 1.3477,-7.6932 2.6945,-15.3828 4.0406,-23.0697 -2.1056,-3.4878 -4.2132,-6.9782 -6.32,-10.4664 -4.2256,-1.5935 -8.4519,-3.1869 -12.6787,-4.7801 -2.8156,-1.5667 -5.631,-3.1328 -8.4469,-4.6989 -0.7118,-7.5867 -1.4238,-15.173 -2.1361,-22.7591 -5.2654,-1.874 -10.5309,-3.7476 -15.797,-5.6212 -4.3138,1.7139 -8.6254,3.4271 -12.9415,5.1423 -3.5167,-2.3102 -7.0332,-4.6197 -10.5458,-6.9263 -2.0088,-1.6728 -4.0068,-3.3361 -6.0321,-5.0217 -4.5664,-1.4229 -9.0648,-2.8243 -13.6032,-4.2378 -4.4596,-0.1878 -8.9003,-0.3745 -13.3684,-0.562 -3.8895,0.8397 -7.7583,1.6752 -11.6387,2.5135 -0.518,2.0427 -1.5545,6.128 -1.5545,6.128 z"
         sodipodi:nodetypes="ccaccccccccccccccccccccsccccccccc" />
      <path
         style="fill:none;stroke:#000000;stroke-width:4.06032;stroke-linecap:round;stroke-linejoin:round;stroke-miterlimit:4;stroke-dasharray:none;stroke-opacity:1"
         d="m -8178.8933,-1432.9848 c -2.3957,0.5063 -4.7877,1.0118 -8.3088,1.7629 -3.5212,0.7512 -8.1469,1.7427 -11.3807,3.6251 -3.2339,1.8825 -5.0655,4.6523 -5.941,6.4481 -0.8755,1.7957 -0.7932,2.6149 -0.711,3.4341"
         id="path1198-1-7-1-8-23-1-32"
         inkscape:connector-curvature="0"
         inkscape:path-effect="#path-effect1200-8-8-45-8-2-6-49"
         inkscape:original-d="m -8178.8933,-1432.9848 c -2.3957,0.5061 -4.7877,1.0116 -7.1881,1.5191 -4.6419,0.9948 -9.2676,1.9863 -13.9027,2.98 -1.8326,2.7714 -3.6641,5.5413 -5.4974,8.3135 0.082,0.8192 0.1648,1.6384 0.2467,2.4576"
         sodipodi:nodetypes="ccccc" />
      <path
         style="fill:none;stroke:#000000;stroke-width:4.06032;stroke-linecap:round;stroke-linejoin:round;stroke-miterlimit:4;stroke-dasharray:none;stroke-opacity:1"
         d="m -8242.4164,-1387.8636 c 3.631,-4.2541 7.2613,-8.5073 12.0496,-9.7951 4.7883,-1.2878 10.7366,0.3897 16.6828,2.0666"
         id="path1202-4-02-6-4-91-82-9"
         inkscape:connector-curvature="0"
         inkscape:path-effect="#path-effect1204-5-60-497-0-5-1-5"
         inkscape:original-d="m -8242.4164,-1387.8636 c 3.631,-4.2541 7.2613,-8.5073 10.8911,-12.76 5.9469,1.6768 11.8952,3.3543 17.8413,5.0315"
         sodipodi:nodetypes="ccc" />
      <path
         style="fill:none;stroke:#000000;stroke-width:4.06032;stroke-linecap:round;stroke-linejoin:round;stroke-miterlimit:4;stroke-dasharray:none;stroke-opacity:1"
         d="m -8141.6672,-1398.849 c -4.2969,-2.003 -8.5927,-4.0056 -12.0912,-5.3147 -3.4986,-1.3091 -6.1983,-1.9241 -10.0458,-2.1545 -3.8476,-0.2303 -8.8432,-0.076 -12.8613,1.7028 -4.0182,1.7788 -7.0588,5.1817 -9.087,8.6885 -2.0282,3.5068 -3.0429,7.116 -3.3244,9.8822 -0.2814,2.7662 0.1708,4.6882 0.623,6.6101"
         id="path1206-3-4-5-1-1-2-5"
         inkscape:connector-curvature="0"
         inkscape:path-effect="#path-effect1208-5-8-2-9-56-2-2"
         inkscape:original-d="m -8141.6672,-1398.849 c -4.2967,-2.0034 -8.5925,-4.0059 -12.8897,-6.0087 -2.7,-0.6154 -5.3997,-1.2305 -8.1,-1.8453 -4.9949,0.1542 -9.9905,0.3087 -14.9861,0.4634 -3.0406,3.403 -6.0813,6.8059 -9.1229,10.2099 -1.0143,3.6097 -2.0294,7.2188 -3.0446,10.8292 0.4525,1.9219 0.9047,3.8439 1.3566,5.7659"
         sodipodi:nodetypes="cccccsc" />
      <path
         style="fill:none;stroke:#000000;stroke-width:4.06032;stroke-linecap:round;stroke-linejoin:round;stroke-miterlimit:4;stroke-dasharray:none;stroke-opacity:1"
         d="m -8133.4378,-1340.6342 c -2.2947,2.6262 -4.5881,5.251 -6.7842,7.4138 -2.1961,2.1627 -4.2904,3.859 -7.6552,5.451 -3.3649,1.5919 -7.9993,3.0787 -10.9935,3.8102 -2.9941,0.7315 -4.3465,0.7075 -5.7001,0.6835"
         id="path1210-3-03-6-6-0-1-82"
         inkscape:connector-curvature="0"
         inkscape:path-effect="#path-effect1212-9-57-4-5-4-9-1"
         inkscape:original-d="m -8133.4378,-1340.6342 c -2.2947,2.6262 -4.5881,5.251 -6.8842,7.8788 -2.0961,1.6977 -4.1904,3.394 -6.2859,5.0913 -4.6342,1.4865 -9.2687,2.9732 -13.9041,4.4604 -1.3528,-0.024 -2.7052,-0.048 -4.0588,-0.072"
         sodipodi:nodetypes="ccccc" />
      <path
         style="fill:none;stroke:#000000;stroke-width:4.06032;stroke-linecap:round;stroke-linejoin:round;stroke-miterlimit:4;stroke-dasharray:none;stroke-opacity:1"
         d="m -8213.0704,-1264.6112 c -0.1628,-1.1654 -0.3257,-2.3309 0.1316,-4.8184 0.4574,-2.4875 1.5349,-6.2962 3.991,-9.5995 2.4561,-3.3032 6.2898,-6.1006 10.5179,-8.0406 4.2282,-1.9399 8.8523,-3.0231 12.3476,-3.5193 3.4953,-0.4962 5.8637,-0.4059 8.2311,-0.3157"
         id="path1214-8-85-3-2-0-9-2"
         inkscape:connector-curvature="0"
         inkscape:path-effect="#path-effect1216-0-22-53-2-26-2-9"
         inkscape:original-d="m -8213.0704,-1264.6112 c -0.1621,-1.1655 -0.3249,-2.331 -0.4886,-3.4967 1.0779,-3.8091 2.1556,-7.6178 3.2324,-11.4262 3.8348,-2.7983 7.6685,-5.5957 11.5017,-8.3926 4.6231,-1.0833 9.2472,-2.1664 13.8697,-3.2488 2.3682,0.089 4.7366,0.18 7.104,0.2708"
         sodipodi:nodetypes="cccccc" />
      <path
         style="fill:none;stroke:#000000;stroke-width:4.06032;stroke-linecap:round;stroke-linejoin:round;stroke-miterlimit:4;stroke-dasharray:none;stroke-opacity:1"
         d="m -8190.7061,-1290.3633 c -0.6647,-4.9653 -1.3531,-10.1076 -2.988,-14.3035 -1.6349,-4.1959 -4.2287,-7.5352 -7.4985,-10.2424 -3.2699,-2.7071 -7.2168,-4.7828 -11.2197,-6.0011 -4.003,-1.2183 -8.0622,-1.5793 -12.1222,-1.9403"
         id="path1218-5-7-6-4-0-5-8"
         inkscape:connector-curvature="0"
         inkscape:path-effect="#path-effect1220-7-50-12-0-8-4-0"
         inkscape:original-d="m -8190.7061,-1290.3633 c -0.6758,-4.9638 -1.3524,-10.1077 -2.0296,-15.1607 -2.5926,-3.3392 -5.1864,-6.6785 -7.7806,-10.017 -3.9458,-2.0761 -7.8927,-4.1517 -11.84,-6.2267 -4.0589,-0.3616 -8.1181,-0.7226 -12.1782,-1.0829" />
      <path
         style="fill:none;stroke:#000000;stroke-width:4.06032;stroke-linecap:round;stroke-linejoin:round;stroke-miterlimit:4;stroke-dasharray:none;stroke-opacity:1"
         d="m -8218.5493,-1360.9375 c 5.7659,2.2185 11.7276,4.5123 17.8167,5.7305 6.0892,1.2182 12.4042,1.3987 17.8165,-0.045 5.4124,-1.444 9.9233,-4.5125 13.1367,-8.2122 3.2133,-3.6997 5.1305,-8.0321 6.258,-11.0099 1.1275,-2.9779 1.4659,-4.6025 1.804,-6.2263"
         id="path1222-8-3-25-7-6-2-7"
         inkscape:connector-curvature="0"
         inkscape:path-effect="#path-effect1224-5-24-6-0-4-9-46"
         inkscape:original-d="m -8218.5493,-1360.9375 c 5.7516,2.2555 11.7279,4.5115 17.5908,6.7682 6.3151,0.1799 12.6301,0.3604 18.9441,0.5414 4.5106,-3.0685 9.0216,-6.137 13.5314,-9.2047 1.9172,-4.3315 3.8345,-8.6638 5.7508,-12.995 0.3389,-1.6246 0.6773,-3.2492 1.0148,-4.8731" />
      <path
         style="fill:none;stroke:#000000;stroke-width:4.06032;stroke-linecap:round;stroke-linejoin:round;stroke-miterlimit:4;stroke-dasharray:none;stroke-opacity:1"
         d="m -8193.8544,-1354.1693 c -0.2653,3.27 -0.5307,6.54 0.4841,9.214 1.0148,2.674 3.3088,4.7491 6.2607,6.4077 2.9519,1.6586 6.5609,2.9001 9.3803,3.5208 2.8194,0.6207 4.8492,0.6207 6.8782,0.6207"
         id="path1226-7-53-75-1-6-4-59"
         inkscape:connector-curvature="0"
         inkscape:path-effect="#path-effect1228-4-61-58-2-2-4-81"
         inkscape:original-d="m -8193.8544,-1354.1693 c -0.2648,3.27 -0.5301,6.54 -0.7962,9.8119 2.2956,2.0755 4.5897,4.1506 6.8835,6.2267 3.6096,1.241 7.2186,2.4825 10.8269,3.7246 2.0303,-6e-4 4.0601,-6e-4 6.0891,0"
         sodipodi:nodetypes="ccccc" />
      <g
         transform="translate(-887.8407,-515.92327)"
         id="g11398-1-0">
        <text
           transform="matrix(0,-0.89049867,1.1229663,0,0,0)"
           id="text2844-9-1-7-6-5-1-8-68-8-7-9"
           y="-6966.6787"
           x="856.10266"
           style="font-style:normal;font-variant:normal;font-weight:normal;font-stretch:normal;font-size:4.95418px;line-height:1.25;font-family:sans-serif;-inkscape-font-specification:sans-serif;letter-spacing:0px;word-spacing:0px;fill:#c8d23f;fill-opacity:1;stroke:#000000;stroke-width:0.48888;stroke-miterlimit:4;stroke-dasharray:none;stroke-opacity:1"
           xml:space="preserve"><tspan
             style="font-style:normal;font-variant:normal;font-weight:bold;font-stretch:normal;font-size:79.375px;line-height:0.9;font-family:'Courier New';-inkscape-font-specification:'Courier New Bold';fill:#c8d23f;fill-opacity:1;stroke:#000000;stroke-width:0.48888;stroke-miterlimit:4;stroke-dasharray:none;stroke-opacity:1"
             y="-6966.6787"
             x="856.10266"
             sodipodi:role="line"
             id="tspan11249-7-3">r</tspan></text>
        <text
           transform="matrix(0,-0.89049867,1.1229663,0,0,0)"
           id="text2844-9-1-7-6-5-1-8-68-8-6-0-11"
           y="-6967.3184"
           x="902.52722"
           style="font-style:normal;font-variant:normal;font-weight:normal;font-stretch:normal;font-size:4.95418px;line-height:1.25;font-family:sans-serif;-inkscape-font-specification:sans-serif;letter-spacing:0px;word-spacing:0px;fill:#c8d23f;fill-opacity:1;stroke:#000000;stroke-width:0.48888;stroke-miterlimit:4;stroke-dasharray:none;stroke-opacity:1"
           xml:space="preserve"><tspan
             id="tspan8951-7-1-6-8-0-7"
             style="font-style:normal;font-variant:normal;font-weight:bold;font-stretch:normal;font-size:79.375px;line-height:0.9;font-family:'Courier New';-inkscape-font-specification:'Courier New Bold';fill:#c8d23f;fill-opacity:1;stroke:#000000;stroke-width:0.48888;stroke-miterlimit:4;stroke-dasharray:none;stroke-opacity:1"
             y="-6967.3184"
             x="902.52722"
             sodipodi:role="line">e</tspan></text>
        <text
           transform="matrix(0,-0.89049867,1.1229663,0,0,0)"
           id="text2844-9-1-7-6-5-1-8-68-8-65-4-7"
           y="-6967.3184"
           x="812.3136"
           style="font-style:normal;font-variant:normal;font-weight:normal;font-stretch:normal;font-size:4.95418px;line-height:1.25;font-family:sans-serif;-inkscape-font-specification:sans-serif;letter-spacing:0px;word-spacing:0px;fill:#c8d23f;fill-opacity:1;stroke:#000000;stroke-width:0.48888;stroke-miterlimit:4;stroke-dasharray:none;stroke-opacity:1"
           xml:space="preserve"><tspan
             id="tspan8951-7-1-6-0-9-8"
             style="font-style:normal;font-variant:normal;font-weight:bold;font-stretch:normal;font-size:79.375px;line-height:0.9;font-family:'Courier New';-inkscape-font-specification:'Courier New Bold';fill:#c8d23f;fill-opacity:1;stroke:#000000;stroke-width:0.48888;stroke-miterlimit:4;stroke-dasharray:none;stroke-opacity:1"
             y="-6967.3184"
             x="812.3136"
             sodipodi:role="line">o</tspan></text>
        <text
           transform="matrix(0,-0.89049867,1.1229663,0,0,0)"
           id="text2844-9-1-7-6-5-1-8-68-8-2-0-4"
           y="-6967.3379"
           x="767.05176"
           style="font-style:normal;font-variant:normal;font-weight:normal;font-stretch:normal;font-size:4.95418px;line-height:1.25;font-family:sans-serif;-inkscape-font-specification:sans-serif;letter-spacing:0px;word-spacing:0px;fill:#c8d23f;fill-opacity:1;stroke:#000000;stroke-width:0.48888;stroke-miterlimit:4;stroke-dasharray:none;stroke-opacity:1"
           xml:space="preserve"><tspan
             id="tspan8951-7-1-6-02-7-2"
             style="font-style:normal;font-variant:normal;font-weight:bold;font-stretch:normal;font-size:79.375px;line-height:0.9;font-family:'Courier New';-inkscape-font-specification:'Courier New Bold';fill:#c8d23f;fill-opacity:1;stroke:#000000;stroke-width:0.48888;stroke-miterlimit:4;stroke-dasharray:none;stroke-opacity:1"
             y="-6967.3379"
             x="767.05176"
             sodipodi:role="line">c</tspan></text>
      </g>
    </g>
  </g>
</svg>
